<svg width="213" height="26" viewBox="0 0 213 26" fill="none" xmlns="http://www.w3.org/2000/svg">
<path d="M175.851 0.593994H210.851C211.074 0.598285 211.294 0.646599 211.499 0.736084C211.704 0.825569 211.889 0.95444 212.044 1.11548C212.198 1.27652 212.32 1.46651 212.401 1.67456C212.483 1.88261 212.522 2.10454 212.518 2.32788V24.0022C212.522 24.2255 212.483 24.4475 212.401 24.6555C212.32 24.8636 212.198 25.0536 212.044 25.2146C211.889 25.3756 211.704 25.5045 211.499 25.594C211.294 25.6835 211.074 25.7318 210.851 25.7361H175.851C175.627 25.7318 175.407 25.6835 175.202 25.594C174.998 25.5045 174.813 25.3756 174.658 25.2146C174.503 25.0536 174.381 24.8636 174.3 24.6555C174.219 24.4475 174.179 24.2255 174.184 24.0022V2.32788C174.179 2.10454 174.219 1.88261 174.3 1.67456C174.381 1.46651 174.503 1.27652 174.658 1.11548C174.813 0.95444 174.998 0.825569 175.202 0.736084C175.407 0.646599 175.627 0.598285 175.851 0.593994Z" fill="url(#paint0_linear_8_527)"/>
<path d="M204.156 17.8201L203.904 16.5251H201.17L200.721 17.8201H198.479L201.686 9.75513C201.76 9.55514 201.897 9.38411 202.075 9.26733C202.254 9.15056 202.465 9.09424 202.679 9.1062H204.408L206.13 17.821L204.156 17.8201ZM202.92 11.4758L201.79 14.7371H203.556L202.92 11.4758ZM195.633 11.5901C195.633 12.5421 198.633 12.7458 198.633 14.9348C198.633 17.0428 196.418 17.8181 194.951 17.8181C194.117 17.8319 193.289 17.6696 192.523 17.342L192.843 15.4519C193.723 16.1719 196.392 16.3771 196.392 15.2341C196.392 14.0911 193.417 14.0639 193.417 11.8879C193.417 9.57594 195.951 9.09985 197.017 9.09985C197.677 9.11678 198.33 9.24091 198.951 9.46704L198.644 11.2761C197.726 10.7641 195.631 10.642 195.631 11.594L195.633 11.5901ZM189.049 17.8201L190.393 9.10474H192.544L191.2 17.8201H189.049ZM183.892 17.8201L182.026 10.2581C182.355 10.464 182.67 10.6932 182.967 10.9441C183.864 11.7117 184.546 12.6986 184.948 13.8088L185.191 15.0999L187.242 9.1062H189.557L186.135 17.821L183.892 17.8201ZM180.098 9.34399L179.998 9.31421L180.098 9.34399ZM179.878 9.27905L179.83 9.26587L179.878 9.27905ZM180.407 9.44897L180.279 9.40405L180.407 9.44897ZM181.898 10.1741C181.831 10.1327 181.764 10.0929 181.698 10.0549C181.762 10.0989 181.828 10.137 181.896 10.179L181.898 10.1741ZM181.384 9.88403C181.326 9.85403 181.266 9.82219 181.209 9.79419C181.264 9.82719 181.323 9.85892 181.382 9.88892L181.384 9.88403ZM180.849 9.6272L180.731 9.57593L180.849 9.6272Z" fill="#494CA3"/>
<path d="M184.945 13.813L184.221 9.89501C184.183 9.65886 184.056 9.44617 183.866 9.30028C183.677 9.1544 183.439 9.08666 183.201 9.11034H179.811L179.771 9.25732C180.948 9.5747 182.038 10.1522 182.963 10.9473C183.86 11.715 184.543 12.7022 184.945 13.813Z" fill="#FFC000"/>
<path d="M117.798 0.755127H152.533C152.982 0.767182 153.407 0.956141 153.717 1.28101C154.027 1.60587 154.196 2.04015 154.187 2.48901V24.1619C154.196 24.6107 154.027 25.045 153.717 25.3699C153.407 25.6947 152.982 25.8837 152.533 25.8958H117.798C117.349 25.8837 116.923 25.6947 116.613 25.3699C116.303 25.045 116.135 24.6107 116.144 24.1619V2.48999C116.134 2.04096 116.303 1.60658 116.613 1.28149C116.923 0.956412 117.349 0.767181 117.798 0.755127Z" fill="#F1F1F1"/>
<path d="M116.556 25.3049C116.29 24.9842 116.146 24.5803 116.147 24.1638V2.48999C116.137 2.04096 116.306 1.60658 116.616 1.28149C116.926 0.956412 117.352 0.767181 117.801 0.755127H152.535C152.956 0.756073 153.361 0.922587 153.661 1.21899L116.561 25.3049H116.556Z" fill="white" fill-opacity="0.73"/>
<path d="M130.792 18.72L132.092 16.3699L131.368 10.7259H133.139L133.425 14.0662L135.158 10.7259H136.986L132.777 18.72H130.792ZM125.239 14.5042C125.512 13.1302 126.839 12.6942 128.801 12.6942C128.918 12.0832 128.529 11.93 127.867 11.953C127.283 11.9812 126.709 12.1144 126.173 12.346L126.328 10.973C126.972 10.7728 127.639 10.6554 128.313 10.6239C129.539 10.6019 130.902 10.9933 130.591 12.5863L129.832 16.3363H128.061L128.177 15.7679C127.971 15.98 127.725 16.1494 127.454 16.2655C127.182 16.3815 126.89 16.4422 126.595 16.4442C125.756 16.4402 125.009 15.8938 125.24 14.4998L125.239 14.5042ZM127.05 14.4168C126.994 14.4958 126.962 14.5893 126.958 14.6859C126.955 14.7824 126.979 14.8782 127.028 14.9613C127.078 15.0443 127.15 15.1114 127.237 15.1541C127.323 15.1969 127.421 15.2133 127.517 15.202C127.736 15.2117 127.951 15.142 128.123 15.0057C128.295 14.8694 128.411 14.6759 128.452 14.4603C128.475 14.2917 128.508 14.1248 128.552 13.9603H128.104C127.904 13.9418 127.703 13.9734 127.519 14.0526C127.335 14.1317 127.174 14.2554 127.05 14.4129V14.4168ZM119.139 16.3363L120.603 9.16389H123.91C124.204 9.16128 124.496 9.2295 124.759 9.36262C125.022 9.49574 125.249 9.68994 125.422 9.92903C125.594 10.1681 125.707 10.445 125.75 10.7366C125.793 11.0282 125.766 11.3259 125.671 11.6048C125.575 12.2607 125.247 12.8601 124.745 13.2928C124.243 13.7255 123.601 13.9628 122.939 13.9603H121.556L121.081 16.3363H119.139ZM121.832 12.5863H122.742C123.008 12.565 123.26 12.4575 123.46 12.2806C123.66 12.1037 123.797 11.8664 123.851 11.6048C123.893 11.4972 123.908 11.3813 123.896 11.2664C123.883 11.1516 123.843 11.0413 123.779 10.9451C123.715 10.849 123.629 10.7699 123.528 10.7142C123.426 10.6585 123.313 10.6275 123.198 10.6248H122.248L121.832 12.5863Z" fill="#3284AE"/>
<path d="M142.456 14.4998C142.732 13.1258 144.073 12.6912 146.062 12.6912C146.2 12.0792 145.806 11.928 145.136 11.95C144.54 11.9806 143.953 12.1133 143.402 12.342L143.56 10.969C144.219 10.7713 144.901 10.6543 145.589 10.6208C146.83 10.5988 148.189 10.9898 147.874 12.5818L147.106 16.3308H145.333L145.451 15.7649C145.021 16.194 144.44 16.4371 143.833 16.4412C142.975 16.4402 142.219 15.8948 142.456 14.4998ZM144.289 14.4128C144.235 14.4944 144.205 14.59 144.204 14.6877C144.203 14.7855 144.23 14.8813 144.282 14.9641C144.334 15.0469 144.409 15.1131 144.498 15.1545C144.586 15.196 144.685 15.2111 144.782 15.198C145 15.2077 145.213 15.1378 145.384 15.0017C145.554 14.8656 145.669 14.6723 145.708 14.4578C145.747 14.2828 145.767 14.1298 145.808 13.9578H145.375C145.17 13.937 144.963 13.9679 144.773 14.0471C144.583 14.1264 144.415 14.2517 144.286 14.4119L144.289 14.4128ZM147.925 16.3308L149.391 9.13696H151.211L149.726 16.3308H147.925ZM136.356 16.3308L137.818 9.15991H141.118C141.412 9.15912 141.702 9.2284 141.963 9.36206C142.225 9.49572 142.451 9.68992 142.623 9.92847C142.795 10.167 142.907 10.443 142.951 10.7336C142.995 11.0243 142.969 11.3213 142.875 11.5999C142.779 12.258 142.449 12.8592 141.944 13.2922C141.439 13.7253 140.795 13.9607 140.13 13.9548H138.767L138.273 16.3298L136.356 16.3308ZM139.043 12.5818H139.931C140.199 12.5611 140.454 12.4548 140.657 12.2781C140.86 12.1014 141 11.8638 141.058 11.6008C141.098 11.4917 141.111 11.3748 141.096 11.2595C141.082 11.1443 141.04 11.0341 140.974 10.9382C140.909 10.8424 140.821 10.7639 140.719 10.7087C140.617 10.6535 140.503 10.6232 140.387 10.6208H139.439L139.043 12.5818Z" fill="#3CA9C7"/>
<path d="M59.6146 0.593994H94.5875C95.0382 0.603184 95.4669 0.790788 95.7792 1.11597C96.0914 1.44115 96.2617 1.87716 96.2525 2.32788V24.0022C96.2617 24.4529 96.0914 24.8884 95.7792 25.2136C95.4669 25.5388 95.0382 25.7269 94.5875 25.7361H59.6146C59.1639 25.7269 58.7352 25.5388 58.423 25.2136C58.1107 24.8884 57.9405 24.4529 57.9496 24.0022V2.32788C57.9405 1.87716 58.1107 1.44115 58.423 1.11597C58.7352 0.790788 59.1639 0.603184 59.6146 0.593994Z" fill="#5870BE"/>
<path d="M74.7046 13.1608C74.705 11.385 75.2319 9.64927 76.2188 8.17296C77.2056 6.69666 78.608 5.54613 80.2487 4.86681C81.8893 4.18749 83.6946 4.00995 85.4362 4.35656C87.1778 4.70316 88.7775 5.55836 90.0331 6.81407C91.2887 8.06979 92.1437 9.66961 92.4901 11.4112C92.8365 13.1529 92.6586 14.9581 91.9791 16.5987C91.2996 18.2393 90.149 19.6414 88.6726 20.628C87.1962 21.6147 85.4603 22.1415 83.6846 22.1417C82.5052 22.1417 81.3374 21.9095 80.2478 21.4581C79.1582 21.0068 78.1682 20.3453 77.3344 19.5113C76.5005 18.6774 75.839 17.6874 75.3878 16.5978C74.9366 15.5081 74.7045 14.3401 74.7046 13.1608Z" fill="#FFAF38"/>
<path d="M69.9255 22.1398C68.3944 22.1397 66.8888 21.748 65.5517 21.0021C64.2146 20.2563 63.0904 19.1808 62.286 17.8781C61.4815 16.5754 61.0235 15.0888 60.9554 13.5593C60.8873 12.0297 61.2115 10.5079 61.8971 9.13887C62.5826 7.76985 63.6069 6.59923 64.8724 5.7375C66.138 4.87577 67.6028 4.35171 69.1278 4.21553C70.6528 4.07934 72.1873 4.33532 73.5855 4.95918C74.9838 5.58304 76.1993 6.55409 77.1165 7.77998H75.9166V8.38008H77.5295C77.6505 8.57108 77.7646 8.76895 77.8706 8.96895H75.3165V9.56904H78.1595C78.2475 9.76904 78.3266 9.96914 78.3966 10.1691H74.7165V10.7688H78.5846C79.0707 12.5427 79.0037 14.423 78.3925 16.1579H74.7165V16.758H78.1555C78.0655 16.965 77.9686 17.1578 77.8706 17.3488H75.3165V17.9489H77.5226C77.3896 18.1589 77.2506 18.36 77.1096 18.549H75.9166V19.1491H76.6165C75.7738 20.0895 74.7424 20.8418 73.5896 21.3571C72.4367 21.8725 71.1883 22.139 69.9255 22.1398Z" fill="#E63737"/>
<path d="M60.0744 14.8128L60.6211 10.5528L61.4696 10.6617L62.0909 13.8074C62.1478 14.1002 62.1887 14.3191 62.2134 14.4641C62.2817 14.3153 62.3865 14.0974 62.5277 13.8103L63.928 10.9772L64.6864 11.0745L64.1397 15.3345L63.5963 15.2648L64.0539 11.6993L62.3584 15.1059L61.8499 15.0407L61.0832 11.256L60.6178 14.8825L60.0744 14.8128ZM67.045 15.3204C66.8302 15.4602 66.6283 15.5525 66.4395 15.5972C66.2525 15.6421 66.0564 15.6514 65.851 15.625C65.512 15.5815 65.262 15.4658 65.1011 15.2777C64.9403 15.0877 64.8765 14.8639 64.9096 14.6063C64.929 14.4552 64.9805 14.322 65.0642 14.2067C65.1501 14.0897 65.2532 14.0006 65.3733 13.9392C65.4953 13.878 65.6286 13.8371 65.773 13.8162C65.8792 13.8023 66.0375 13.796 66.248 13.7974C66.6768 13.8012 66.9955 13.7811 67.2039 13.737C67.2151 13.6655 67.2219 13.6201 67.2244 13.6008C67.2517 13.3877 67.2216 13.2312 67.134 13.1313C67.0155 12.996 66.8245 12.9114 66.561 12.8776C66.315 12.8461 66.1273 12.8663 65.9979 12.9383C65.8708 13.0086 65.7651 13.1496 65.6808 13.3613L65.1783 13.2259C65.2529 13.013 65.352 12.8465 65.4757 12.7265C65.5997 12.6046 65.767 12.5207 65.9777 12.4749C66.1886 12.4271 66.4267 12.4203 66.6921 12.4543C66.9556 12.4882 67.1657 12.5466 67.3224 12.6298C67.4791 12.7129 67.5901 12.8069 67.6554 12.9117C67.721 13.0147 67.7601 13.1398 67.7727 13.2871C67.7787 13.3785 67.7667 13.5404 67.7369 13.7729L67.6474 14.4703C67.585 14.9565 67.5561 15.2659 67.5608 15.3984C67.5676 15.5293 67.5964 15.658 67.6471 15.7846L67.1008 15.7145C67.0605 15.5991 67.0419 15.4677 67.045 15.3204ZM67.1514 14.1467C66.9516 14.1998 66.6583 14.2291 66.2717 14.2346C66.0527 14.238 65.8961 14.2534 65.802 14.2807C65.708 14.308 65.6318 14.3563 65.5737 14.4257C65.5158 14.4931 65.4811 14.5723 65.4694 14.6634C65.4515 14.8028 65.4889 14.9258 65.5815 15.0322C65.6762 15.1389 65.8252 15.2052 66.0286 15.2313C66.2301 15.2572 66.4148 15.2366 66.5829 15.1696C66.7513 15.1006 66.8821 14.9943 66.9754 14.8507C67.0467 14.7398 67.0972 14.569 67.1268 14.3385L67.1514 14.1467ZM68.2041 14.9198L68.7318 14.9048C68.7342 15.1158 68.7942 15.285 68.9118 15.4123C69.0313 15.5399 69.2102 15.619 69.4485 15.6496C69.6887 15.6804 69.8731 15.6548 70.0018 15.5729C70.1307 15.489 70.2036 15.3812 70.2205 15.2495C70.2357 15.1313 70.1963 15.0317 70.1023 14.9507C70.0366 14.895 69.866 14.8131 69.5904 14.7049C69.2192 14.5588 68.9636 14.4413 68.8234 14.3524C68.6853 14.2618 68.5855 14.1496 68.5239 14.0156C68.4645 13.88 68.4445 13.7367 68.4639 13.5856C68.4816 13.448 68.5289 13.3251 68.6058 13.2168C68.6849 13.1069 68.7836 13.0201 68.9021 12.9565C68.9911 12.9069 69.108 12.8707 69.2527 12.8479C69.3996 12.8235 69.5534 12.8216 69.7142 12.8422C69.9564 12.8733 70.164 12.9354 70.3372 13.0285C70.5123 13.1218 70.6357 13.2342 70.7075 13.3654C70.7795 13.4948 70.8191 13.6614 70.8265 13.8651L70.3061 13.8692C70.3032 13.7074 70.2513 13.5747 70.1504 13.4712C70.0514 13.3679 69.9002 13.3032 69.6968 13.2771C69.4566 13.2463 69.2801 13.264 69.1672 13.3302C69.0543 13.3965 68.9911 13.4829 68.9774 13.5894C68.9687 13.6572 68.9822 13.721 69.0178 13.7807C69.0532 13.8424 69.1141 13.8974 69.2004 13.9459C69.2502 13.972 69.3985 14.0363 69.6453 14.1389C70.0026 14.2852 70.2498 14.3996 70.3869 14.4822C70.5262 14.5631 70.6298 14.6689 70.6977 14.7997C70.7656 14.9305 70.7881 15.085 70.7652 15.2632C70.7428 15.4376 70.6704 15.5957 70.5478 15.7375C70.4274 15.8776 70.2659 15.9779 70.0631 16.0386C69.8607 16.0973 69.6383 16.1111 69.3962 16.08C68.9952 16.0285 68.6998 15.9059 68.51 15.7122C68.3222 15.5188 68.2202 15.2546 68.2041 14.9198ZM72.4727 15.9284L72.489 16.4001C72.3378 16.4122 72.2041 16.4108 72.0878 16.3959C71.898 16.3715 71.7546 16.3226 71.6577 16.2491C71.5608 16.1756 71.4973 16.0877 71.4671 15.9854C71.4371 15.8811 71.4423 15.6721 71.4826 15.3583L71.7104 13.5828L71.3269 13.5335L71.3791 13.1267L71.7626 13.176L71.8607 12.4117L72.4211 12.1646L72.2828 13.2427L72.8087 13.3102L72.7565 13.717L72.2306 13.6495L71.999 15.4541C71.9798 15.6032 71.9763 15.7002 71.9882 15.7451C72.0021 15.7902 72.0278 15.828 72.0653 15.8584C72.1046 15.889 72.1631 15.9093 72.2406 15.9193C72.2987 15.9267 72.3761 15.9298 72.4727 15.9284ZM75.1671 15.7395L75.699 15.8757C75.5733 16.1806 75.3839 16.4054 75.131 16.5501C74.8781 16.6949 74.5725 16.7443 74.2141 16.6983C73.7627 16.6404 73.4221 16.4559 73.1923 16.1448C72.9646 15.832 72.883 15.4247 72.9474 14.923C73.014 14.4038 73.1994 14.018 73.5035 13.7656C73.8076 13.5132 74.1728 13.4144 74.599 13.4691C75.0116 13.522 75.3307 13.7057 75.5561 14.0202C75.7816 14.3346 75.8617 14.7466 75.7963 15.2561C75.7923 15.2871 75.7854 15.3335 75.7755 15.3952L73.474 15.0999C73.4499 15.4414 73.5125 15.7133 73.6618 15.9156C73.8111 16.1179 74.0145 16.2355 74.2722 16.2686C74.464 16.2932 74.6341 16.2638 74.7827 16.1805C74.9312 16.0972 75.0594 15.9502 75.1671 15.7395ZM73.5583 14.6735L75.2815 14.8947C75.2915 14.6321 75.2507 14.429 75.1588 14.2852C75.0181 14.0624 74.815 13.9339 74.5496 13.8999C74.3094 13.869 74.0966 13.9235 73.9113 14.0631C73.728 14.203 73.6103 14.4065 73.5583 14.6735ZM76.2339 16.8866L76.6299 13.8006L77.1007 13.861L77.0407 14.3288C77.1889 14.1254 77.3178 13.9952 77.4275 13.9384C77.5391 13.8818 77.6559 13.8614 77.778 13.877C77.9543 13.8997 78.1263 13.9788 78.2939 14.1146L78.0515 14.5767C77.9333 14.4848 77.8103 14.4306 77.6825 14.4142C77.5682 14.3995 77.461 14.4212 77.361 14.4792C77.2613 14.5354 77.1842 14.622 77.1298 14.739C77.0478 14.9176 76.9926 15.1172 76.9643 15.3381L76.757 16.9537L76.2339 16.8866ZM81.5195 16.0467L82.065 16.2615C81.8874 16.7093 81.629 17.0355 81.2896 17.2401C80.9524 17.4429 80.5621 17.5159 80.1184 17.459C79.6593 17.4 79.2973 17.2591 79.0326 17.0361C78.77 16.8114 78.5859 16.512 78.4803 16.1381C78.3766 15.7645 78.3509 15.3742 78.4031 14.9674C78.46 14.5238 78.5939 14.1481 78.8047 13.8404C79.0177 13.531 79.291 13.3111 79.6248 13.1807C79.9608 13.0485 80.3167 13.0066 80.6925 13.0548C81.1187 13.1095 81.4631 13.264 81.7259 13.5182C81.9886 13.7725 82.1519 14.1036 82.2157 14.5115L81.6439 14.5711C81.5849 14.2484 81.4705 14.0043 81.3008 13.8388C81.131 13.6733 80.9037 13.5722 80.619 13.5357C80.2916 13.4937 80.0074 13.537 79.7664 13.6655C79.5274 13.7944 79.3462 13.9857 79.2231 14.2397C79.1001 14.4917 79.0207 14.7582 78.9846 15.0391C78.9381 15.4014 78.9498 15.7248 79.0196 16.0095C79.0916 16.2924 79.2304 16.515 79.436 16.6773C79.6416 16.8395 79.8742 16.9373 80.1338 16.9706C80.4496 17.0112 80.7286 16.9544 80.9709 16.8004C81.2132 16.6464 81.3961 16.3952 81.5195 16.0467ZM84.5848 17.5714C84.3699 17.7112 84.1681 17.8034 83.9792 17.8481C83.7923 17.893 83.5961 17.9023 83.3908 17.876C83.0518 17.8325 82.8018 17.7167 82.6408 17.5287C82.4801 17.3387 82.4163 17.1149 82.4493 16.8572C82.4687 16.7061 82.5203 16.5729 82.604 16.4576C82.6899 16.3407 82.7929 16.2515 82.913 16.1901C83.0351 16.129 83.1683 16.088 83.3128 16.0671C83.4189 16.0532 83.5773 16.0469 83.7878 16.0484C84.2166 16.0522 84.5352 16.032 84.7437 15.9879C84.7548 15.9165 84.7616 15.8711 84.7641 15.8517C84.7915 15.6386 84.7613 15.4821 84.6737 15.3823C84.5552 15.2469 84.3642 15.1624 84.1008 15.1286C83.8547 15.097 83.6671 15.1172 83.5377 15.1892C83.4105 15.2595 83.3048 15.4006 83.2205 15.6122L82.718 15.4769C82.7926 15.2639 82.8918 15.0975 83.0155 14.9775C83.1394 14.8555 83.3067 14.7717 83.5174 14.7258C83.7283 14.6781 83.9665 14.6712 84.2319 14.7053C84.4954 14.7391 84.7054 14.7976 84.8622 14.8807C85.0189 14.9638 85.1299 15.0578 85.1952 15.1627C85.2607 15.2656 85.2998 15.3907 85.3124 15.5381C85.3184 15.6294 85.3065 15.7913 85.2767 16.0238L85.1872 16.7212C85.1248 17.2075 85.0959 17.5168 85.1005 17.6494C85.1074 17.7802 85.1361 17.9089 85.1868 18.0356L84.6405 17.9655C84.6002 17.85 84.5816 17.7187 84.5848 17.5714ZM84.6911 16.3976C84.4913 16.4508 84.1981 16.4801 83.8114 16.4856C83.5924 16.489 83.4359 16.5043 83.3418 16.5316C83.2477 16.559 83.1716 16.6073 83.1135 16.6766C83.0556 16.744 83.0208 16.8232 83.0091 16.9143C82.9912 17.0538 83.0286 17.1767 83.1213 17.2831C83.2159 17.3898 83.3649 17.4562 83.5683 17.4823C83.7698 17.5081 83.9546 17.4875 84.1227 17.4205C84.291 17.3515 84.4218 17.2452 84.5151 17.1017C84.5864 16.9907 84.6369 16.8199 84.6665 16.5894L84.6911 16.3976ZM85.829 18.118L86.2251 15.032L86.6958 15.0924L86.6358 15.5602C86.784 15.3567 86.9129 15.2266 87.0226 15.1698C87.1342 15.1132 87.2511 15.0928 87.3731 15.1084C87.5494 15.131 87.7214 15.2102 87.8891 15.3459L87.6466 15.8081C87.5285 15.7161 87.4055 15.662 87.2776 15.6455C87.1633 15.6309 87.0562 15.6526 86.9562 15.7106C86.8564 15.7667 86.7793 15.8533 86.7249 15.9704C86.6429 16.1489 86.5878 16.3486 86.5594 16.5695L86.3521 18.1851L85.829 18.118ZM89.8188 18.63L89.8688 18.2406C89.6338 18.5216 89.3265 18.6377 88.9468 18.589C88.7008 18.5574 88.4828 18.4605 88.2929 18.2983C88.105 18.1364 87.9694 17.927 87.8862 17.6701C87.8051 17.4116 87.7849 17.1245 87.8254 16.8087C87.8649 16.5007 87.9521 16.2283 88.0868 15.9916C88.2218 15.7529 88.4006 15.5799 88.6231 15.4726C88.8456 15.3653 89.0837 15.3279 89.3375 15.3605C89.5235 15.3844 89.684 15.4453 89.8191 15.5434C89.9544 15.6396 90.0596 15.7564 90.1345 15.894L90.3306 14.3655L90.8508 14.4323L90.3041 18.6923L89.8188 18.63ZM88.363 16.8777C88.3123 17.2729 88.3577 17.579 88.4992 17.7961C88.6407 18.0131 88.8247 18.1362 89.0514 18.1653C89.28 18.1946 89.4856 18.1265 89.6684 17.9609C89.8533 17.7936 89.9703 17.5182 90.0196 17.1346C90.0737 16.7123 90.0322 16.3919 89.8948 16.1734C89.7574 15.9549 89.5696 15.8304 89.3313 15.7998C89.0989 15.77 88.892 15.8399 88.7107 16.0096C88.5314 16.1796 88.4155 16.469 88.363 16.8777Z" fill="white"/>
<path d="M1.74766 0.791748H36.7297C36.953 0.796169 37.1731 0.844784 37.3777 0.934326C37.5822 1.02387 37.7671 1.15269 37.9219 1.31372C38.0766 1.47475 38.1981 1.66482 38.2794 1.8728C38.3607 2.08078 38.4001 2.30286 38.3956 2.52612V24.2019C38.4044 24.6526 38.2339 25.0883 37.9215 25.4133C37.6091 25.7383 37.1804 25.9259 36.7297 25.9348H1.74766C1.29694 25.9259 0.868192 25.7383 0.555766 25.4133C0.24334 25.0883 0.0728059 24.6526 0.0816453 24.2019V2.52612C0.0771355 2.30286 0.116687 2.08078 0.197978 1.8728C0.27927 1.66482 0.400689 1.47475 0.5554 1.31372C0.710111 1.15269 0.895024 1.02387 1.09959 0.934326C1.30415 0.844784 1.5244 0.796169 1.74766 0.791748Z" fill="#353A40"/>
<path d="M22.7706 17.3561C22.5063 17.2217 22.2888 17.01 22.1467 16.7496C21.9763 16.431 21.8935 16.0732 21.9067 15.712C21.8921 15.4659 21.9263 15.2192 22.0077 14.9865C22.0891 14.7537 22.2159 14.5395 22.3807 14.3561C22.556 14.1892 22.7636 14.06 22.9908 13.9767C23.2181 13.8934 23.4601 13.8575 23.7017 13.8717C23.9451 13.856 24.1892 13.8903 24.4189 13.9723C24.6487 14.0543 24.8593 14.1825 25.0377 14.3488C25.201 14.5287 25.3266 14.7396 25.4071 14.9689C25.4877 15.1982 25.5216 15.4412 25.5067 15.6837C25.5216 16.0354 25.453 16.3856 25.3066 16.7057C25.1745 16.9663 24.9687 17.1823 24.7147 17.3268C24.4173 17.4841 24.0839 17.5608 23.7477 17.549C23.4115 17.5611 23.077 17.4951 22.7706 17.3561ZM23.1766 14.9391C23.0477 15.1774 22.9802 15.444 22.9802 15.715C22.9802 15.9859 23.0477 16.2525 23.1766 16.4909C23.2446 16.5647 23.3273 16.6234 23.4192 16.6637C23.5111 16.704 23.6103 16.7252 23.7107 16.7252C23.8111 16.7252 23.9103 16.704 24.0022 16.6637C24.0941 16.6234 24.1766 16.5647 24.2446 16.4909C24.3962 16.2436 24.463 15.9534 24.4347 15.6647C24.4562 15.4041 24.3855 15.1444 24.2347 14.9308C24.1687 14.8543 24.086 14.794 23.9932 14.754C23.9003 14.714 23.7997 14.6953 23.6987 14.6998C23.5992 14.697 23.5004 14.717 23.4099 14.7584C23.3194 14.7999 23.2395 14.8619 23.1766 14.9391ZM13.2646 17.5128C13.0904 17.4957 12.9208 17.4461 12.7646 17.3668C12.6231 17.2896 12.4981 17.1851 12.3967 17.0597C12.2929 16.9407 12.2149 16.8017 12.1677 16.651C12.1064 16.4567 12.0727 16.2546 12.0677 16.0509V13.9327H13.1387V16.1007C13.1339 16.1831 13.1454 16.266 13.1727 16.3439C13.2 16.4218 13.2426 16.4934 13.2977 16.5548C13.4191 16.6591 13.5737 16.7164 13.7336 16.7164C13.8936 16.7164 14.0483 16.6591 14.1697 16.5548C14.2248 16.4928 14.2672 16.4204 14.2943 16.3419C14.3214 16.2635 14.3327 16.1806 14.3276 16.0978V13.9298H15.3987V16.048C15.3992 16.2522 15.3654 16.4551 15.2987 16.6481C15.2371 16.8317 15.1344 16.9987 14.9987 17.1368C14.8789 17.2674 14.7318 17.3697 14.5677 17.4367C14.3265 17.5206 14.072 17.5608 13.8167 17.5548C13.6323 17.5511 13.4484 17.5368 13.2657 17.5118L13.2646 17.5128ZM28.4037 17.4889L27.1036 15.5368V17.4889H26.0936V13.9337H27.0936L28.4027 15.9V13.9337H29.4147V17.4889H28.4037ZM18.4257 17.4889L17.1257 15.5368V17.4889H16.1157V13.9337H17.1157L18.4237 15.9V13.9337H19.4357V17.4889H18.4257ZM20.1957 17.4796V13.9308H21.2756V17.4796H20.1957ZM11.9907 12.4987C11.7592 12.2588 11.6217 11.9439 11.6036 11.611L12.6257 11.546C12.6364 11.6847 12.6825 11.818 12.7596 11.9337C12.8154 12.0054 12.8876 12.0624 12.9701 12.1002C13.0526 12.138 13.143 12.1556 13.2336 12.151C13.3617 12.1595 13.4884 12.1196 13.5887 12.0397C13.6263 12.0099 13.6567 11.9723 13.6779 11.9293C13.699 11.8863 13.7102 11.8391 13.7108 11.7911C13.7114 11.7432 13.7012 11.696 13.6812 11.6525C13.6611 11.609 13.6316 11.5703 13.5947 11.5397C13.4285 11.4319 13.2408 11.3616 13.0447 11.3336C12.6792 11.2724 12.3339 11.1246 12.0377 10.902C11.9401 10.817 11.8624 10.711 11.8105 10.5924C11.7587 10.4738 11.7338 10.3454 11.7377 10.216C11.7382 10.0322 11.792 9.85254 11.8927 9.69886C12.0066 9.52744 12.1693 9.39423 12.3597 9.31605C12.6322 9.2117 12.9232 9.16423 13.2147 9.17689C13.5716 9.15308 13.927 9.24183 14.2307 9.43079C14.3532 9.52773 14.4537 9.6499 14.5254 9.7887C14.5971 9.92751 14.6385 10.0799 14.6467 10.236L13.6346 10.297C13.6214 10.1641 13.5612 10.0402 13.4647 9.94788C13.3626 9.86995 13.2359 9.83138 13.1077 9.839C13.007 9.83167 12.9071 9.86043 12.8257 9.92005C12.7957 9.94401 12.7716 9.97427 12.7551 10.0089C12.7387 10.0436 12.7304 10.0814 12.7307 10.1198C12.7315 10.1497 12.739 10.179 12.7527 10.2057C12.7664 10.2324 12.7858 10.2559 12.8097 10.2741C12.9189 10.3436 13.0422 10.3879 13.1707 10.4039C13.5182 10.4683 13.857 10.5737 14.1797 10.7179C14.3617 10.8051 14.5153 10.9421 14.6227 11.1129C14.7155 11.2721 14.7633 11.4535 14.7607 11.6378C14.762 11.8617 14.6976 12.0809 14.5757 12.2687C14.4503 12.4624 14.2704 12.6148 14.0587 12.7067C13.7934 12.8137 13.5086 12.8649 13.2227 12.8561C12.781 12.9022 12.3389 12.7734 11.9907 12.4977V12.4987ZM28.4047 12.7887L27.1047 10.8361V12.7887H26.0947V9.23402H27.0947L28.4037 11.2008V9.23402H29.4156V12.7887H28.4047ZM24.5297 12.7887L23.9557 11.7018C23.9095 11.5987 23.8433 11.506 23.7607 11.4288C23.6838 11.3738 23.5913 11.3447 23.4967 11.3458H23.4017V12.7887H22.3226V9.23402H24.1117C24.3683 9.22395 24.625 9.2532 24.8727 9.32093C25.0466 9.37776 25.1964 9.49131 25.2977 9.64369C25.4089 9.81477 25.4651 10.0159 25.4587 10.2199C25.4632 10.398 25.4208 10.5745 25.3357 10.7311C25.2533 10.8735 25.1364 10.9925 24.9957 11.0778C24.8783 11.1445 24.751 11.1925 24.6187 11.2199C24.7179 11.2492 24.8123 11.2929 24.8987 11.3497C24.963 11.4054 25.0204 11.4685 25.0697 11.5377C25.1268 11.6062 25.1773 11.6801 25.2207 11.7579L25.7407 12.7887H24.5297ZM23.4027 10.673H23.8557C23.9517 10.6661 24.0467 10.6496 24.1396 10.6246C24.2093 10.6103 24.2714 10.571 24.3137 10.5138C24.3588 10.4543 24.3827 10.3814 24.3817 10.3068C24.3848 10.2574 24.3768 10.2081 24.3583 10.1622C24.3398 10.1164 24.3112 10.075 24.2747 10.0416C24.155 9.96809 24.0143 9.93629 23.8746 9.95081H23.4027V10.673ZM18.8027 12.7887V9.23402H21.6807V9.99281H19.8807V10.5577H21.5527V11.2838H19.8807V11.984H21.7357V12.7887H18.8027ZM16.1506 12.7887V10.1119H15.0557V9.23402H18.3207V10.1119H17.2207V12.7887H16.1506ZM8.28564 12.7887V9.23402H11.1637V9.99281H9.36365V10.5577H11.0347V11.2838H9.35571V11.984H11.2087V12.7887H8.28564ZM6.11865 12.7887L5.50964 10.5499L4.90271 12.7887H3.84973L3.07666 9.23402H4.09668L4.46375 11.2238L5.00171 9.23402H6.0177L6.55664 11.2218L6.92371 9.23402H7.93872L7.17273 12.7887H6.11865Z" fill="#ECD345"/>
<path d="M34.2058 17.551V9.17114H35.4058V17.551H34.2058ZM31.2158 17.551V9.17114H32.4158V17.551H31.2158Z" fill="#ECD345"/>
<defs>
<linearGradient id="paint0_linear_8_527" x1="193.351" y1="25.7361" x2="193.351" y2="0.593994" gradientUnits="userSpaceOnUse">
<stop stop-color="#E59703"/>
<stop offset="0.231" stop-color="#E59703"/>
<stop offset="0.234" stop-color="white"/>
<stop offset="0.761" stop-color="white"/>
<stop offset="0.766" stop-color="#5457BB"/>
<stop offset="1" stop-color="#5457BB"/>
</linearGradient>
</defs>
</svg>
